<svg width="500" height="500" viewBox="0 0 500 500" fill="none" xmlns="http://www.w3.org/2000/svg">
<title>Image Gen MCP logo</title>
<rect width="500" height="500" rx="150" fill="#86FFD3"/>
<path d="M100 316.667L174.494 242.172C180.154 236.513 187.83 233.333 195.833 233.333C203.837 233.333 211.513 236.513 217.172 242.172L283.333 308.333M283.333 308.333L308.333 333.333M283.333 308.333L316.162 275.505C321.82 269.847 329.497 266.667 337.5 266.667C345.503 266.667 353.18 269.847 358.838 275.505L400 316.667" stroke="black" stroke-width="16" stroke-linecap="round" stroke-linejoin="round"/>
<path d="M250 91.6667C179.504 91.6667 144.257 91.6667 120.879 111.633C117.56 114.468 114.468 117.56 111.633 120.879C91.6667 144.257 91.6667 179.504 91.6667 250C91.6667 320.495 91.6667 355.743 111.633 379.12C114.468 382.44 117.56 385.532 120.879 388.367C144.257 408.333 179.504 408.333 250 408.333C320.495 408.333 355.743 408.333 379.12 388.367C382.44 385.532 385.532 382.44 388.367 379.12C408.333 355.743 408.333 320.495 408.333 250" stroke="black" stroke-width="16" stroke-linecap="round" stroke-linejoin="round"/>
<path d="M279.166 147.918L347.264 79.8213C356.468 70.6165 371.393 70.6165 380.597 79.8213C389.802 89.026 389.802 103.95 380.597 113.155M366.666 227.083L355.893 216.31C352.639 213.056 352.639 207.779 355.893 204.525L413.931 146.487C423.135 137.283 423.135 122.359 413.931 113.155C404.727 103.95 389.802 103.95 380.597 113.155L329.166 164.584" stroke="black" stroke-width="16" stroke-linecap="round" stroke-linejoin="round"/>
<path d="M395.832 131.243L344.402 182.675C335.197 191.879 320.273 191.879 311.068 182.675C301.864 173.47 301.864 158.546 311.068 149.342L362.499 97.9116" stroke="black" stroke-width="16" stroke-linecap="round" stroke-linejoin="round"/>
</svg>
